<?xml version="1.0" encoding="utf-8"?>
<!-- Generator: Adobe Illustrator 23.0.2, SVG Export Plug-In . SVG Version: 6.00 Build 0)  -->
<svg version="1.1" id="Livello_1" xmlns="http://www.w3.org/2000/svg" xmlns:xlink="http://www.w3.org/1999/xlink" x="0px" y="0px"
	 viewBox="0 0 341.3 67.2" preserveAspectRatio="xMidYMid meet">
<style type="text/css">
	.st0{fill:#535AA8;}
</style>
<g>
	<path d="M13.6,56.2h29v11H0V0.9h13.6V56.2z"/>
	<path d="M88.7,53.5H64.8l-4.5,13.6H45.7L70.4,0.9H83l24.8,66.2H93.3L88.7,53.5z M68.5,42.4H85l-8.3-24.8L68.5,42.4z"/>
	<path d="M148.4,49.8c0-2.6-0.9-4.6-2.7-5.9c-1.8-1.4-5.1-2.8-9.8-4.4c-4.7-1.5-8.5-3-11.2-4.5c-7.5-4.1-11.3-9.5-11.3-16.4
		c0-3.6,1-6.8,3-9.6c2-2.8,4.9-5,8.7-6.6c3.8-1.6,8-2.4,12.7-2.4c4.7,0,8.9,0.9,12.6,2.6c3.7,1.7,6.6,4.1,8.6,7.3
		c2,3.1,3.1,6.7,3.1,10.6h-13.6c0-3-1-5.4-2.9-7.1c-1.9-1.7-4.6-2.5-8.1-2.5c-3.3,0-5.9,0.7-7.8,2.1c-1.9,1.4-2.8,3.3-2.8,5.6
		c0,2.2,1.1,4,3.3,5.4c2.2,1.5,5.4,2.8,9.6,4.1c7.8,2.3,13.4,5.2,17,8.7c3.5,3.5,5.3,7.8,5.3,12.9c0,5.7-2.2,10.2-6.5,13.5
		c-4.3,3.3-10.2,4.9-17.5,4.9c-5.1,0-9.7-0.9-13.9-2.8s-7.4-4.4-9.6-7.7c-2.2-3.2-3.3-7-3.3-11.3h13.7c0,7.3,4.4,11,13.1,11
		c3.2,0,5.8-0.7,7.6-2C147.5,54,148.4,52.1,148.4,49.8z"/>
	<path class="st0" d="M196,44.1h-25.6V33.5H196V44.1z"/>
	<path class="st0" d="M259,48l8.9-47.1h13.6l-14.7,66.2h-13.7l-10.8-44.3l-10.8,44.3h-13.7L203.1,0.9h13.6l9,47l10.9-47h11.6L259,48
		z"/>
	<path class="st0" d="M341.3,58.8c-2.5,2.9-5.9,5.2-10.4,6.8c-4.5,1.6-9.5,2.4-14.9,2.4c-5.7,0-10.8-1.3-15.1-3.8
		c-4.3-2.5-7.7-6.1-10-10.9c-2.4-4.8-3.6-10.4-3.6-16.8v-4.5c0-6.6,1.1-12.3,3.3-17.2c2.2-4.8,5.4-8.5,9.6-11.1
		C304.5,1.3,309.4,0,315,0c7.9,0,14,1.9,18.4,5.6c4.4,3.7,7.1,9.2,7.9,16.4H328c-0.6-3.8-1.9-6.6-4-8.3c-2.1-1.8-4.9-2.6-8.6-2.6
		c-4.6,0-8.2,1.7-10.6,5.2c-2.4,3.5-3.7,8.7-3.7,15.6V36c0,6.9,1.3,12.2,4,15.7c2.6,3.5,6.5,5.3,11.6,5.3c5.1,0,8.8-1.1,11-3.3V42.4
		h-12.4V32.3h26.1V58.8z"/>
</g>
</svg>
